<svg id="Layer_1" data-name="Layer 1" xmlns="http://www.w3.org/2000/svg" viewBox="0 0 326.31 42.1"><defs><style>.cls-1{fill:#fff;}</style></defs><title>Name White</title><path class="cls-1" d="M74.33,34.69h1.13v7.2H74.33Z"/><path class="cls-1" d="M83.12,34.71h.58l4.55,5v-5h1.1v7.17h-.58l-4.55-5v5h-1.1Z"/><path class="cls-1" d="M98.68,35.71h-3v-1h7.17v1h-3v6.17H98.68Z"/><path class="cls-1" d="M109.1,34.71h6.72v1h-5.6v1.79h3.68v1h-3.68v2.27h5.91v1h-7Z"/><path class="cls-1" d="M124,41.88H122.9V34.73h4.93c1.46,0,2.34.74,2.34,2a2,2,0,0,1-1.77,2l2,3.15h-1.22l-2-3.13H124Zm3.82-4.18c.77,0,1.19-.34,1.19-1s-.41-1-1.19-1H124V37.7Z"/><path class="cls-1" d="M137.38,34.69h1.13v7.2h-1.13Z"/><path class="cls-1" d="M145.53,38.3c0-2.13,1.75-3.78,4.38-3.78s4.4,1.63,4.4,3.78-1.75,3.8-4.4,3.8S145.53,40.42,145.53,38.3Zm7.63,0c0-1.53-1.27-2.75-3.25-2.75s-3.23,1.2-3.23,2.75,1.27,2.75,3.23,2.75S153.16,39.83,153.16,38.3Z"/><path class="cls-1" d="M162.43,41.88h-1.12V34.73h4.93c1.46,0,2.34.74,2.34,2a2,2,0,0,1-1.77,2l2,3.15h-1.22l-2-3.13h-3.13Zm3.82-4.18c.77,0,1.19-.34,1.19-1s-.41-1-1.19-1h-3.82V37.7Z"/><path class="cls-1" d="M193.76,38.32c0,2.06-1.41,3.56-3.9,3.56h-3.18V34.71h3.18A3.57,3.57,0,0,1,193.76,38.32Zm-6-2.58v5.1h2.08a2.45,2.45,0,0,0,2.73-2.54,2.52,2.52,0,0,0-2.73-2.56Z"/><path class="cls-1" d="M200.69,34.71h6.72v1h-5.6v1.79h3.68v1H201.8v2.27h5.91v1h-7Z"/><path class="cls-1" d="M214.41,40a6.2,6.2,0,0,0,3.28,1c1.34,0,2.13-.62,2.13-1.39s-.74-1.2-2.23-1.24c-2.2,0-3.42-.34-3.42-1.87,0-1.19,1.1-2,3-2a6.36,6.36,0,0,1,3.47,1l-.57.93a5.48,5.48,0,0,0-2.92-.95c-1.13,0-1.8.45-1.8,1s.74.88,2.23.88c2.3,0,3.45.79,3.45,2.3,0,1.27-1.19,2.35-3.18,2.35a7.53,7.53,0,0,1-4-1.13Z"/><path class="cls-1" d="M228.16,34.69h1.13v7.2h-1.13Z"/><path class="cls-1" d="M241.8,38.06h3v2.17a4.47,4.47,0,0,1-3.94,1.87c-2.72,0-4.5-1.65-4.5-3.78s1.8-3.8,4.5-3.8a4.53,4.53,0,0,1,3.8,1.68l-.86.62a3.63,3.63,0,0,0-2.94-1.27c-2,0-3.35,1.22-3.35,2.75s1.31,2.75,3.35,2.75a3.37,3.37,0,0,0,2.8-1.19v-.77H241.8Z"/><path class="cls-1" d="M252,34.71h.58l4.55,5v-5h1.1v7.17h-.58l-4.55-5v5H252Z"/><path class="cls-1" d="M14,4.34A6,6,0,0,0,8.33.92C4.64.92,2.27,3.76,2.27,8c0,4.86,2.57,7.81,6.5,7.81,3.42,0,5.69-2.41,5.69-4.88,0-1.06-.7-1.46-.7-2,0-.27.23-.47.58-.47.72,0,1.4.88,1.4,2.25,0,3.11-2.95,5.83-7.61,5.83A7.86,7.86,0,0,1,0,8.35C0,3.62,3.13.25,7.94.25a20.6,20.6,0,0,1,3.53.47c.07,0,.25,0,.56,0A4.74,4.74,0,0,0,14.54,0V4.3Z"/><path class="cls-1" d="M23.8,15.67h.09c1.13,0,1.37-.81,1.37-2.63V3.76c0-1.82-.25-2.63-1.37-2.63H23.8V.45h4.86v.67h-.09c-1.12,0-1.35.81-1.35,2.63V6.89h8.87V3.76c0-1.82-.25-2.63-1.37-2.63h-.09V.45h4.86v.67h-.09c-1.13,0-1.37.81-1.37,2.63V13c0,1.82.25,2.63,1.37,2.63h.09v.67H34.62v-.67h.09c1.13,0,1.37-.81,1.37-2.63V7.56H27.22V13c0,1.82.23,2.63,1.35,2.63h.09v.67H23.8Z"/><path class="cls-1" d="M49.17,14.27c0,.74.63,1.33,1.73,1.4v.67H45.59v-.67C47.23,15.6,48,14.45,49,12.29l5.83-12,7.67,13.62a3.64,3.64,0,0,0,2.12,1.8v.67H59v-.67h.13a1.12,1.12,0,0,0,1.19-1.13A3.72,3.72,0,0,0,59.86,13l-1.6-2.81H50.81l-1,2.09A5.37,5.37,0,0,0,49.17,14.27Zm8.71-4.75L54.25,3.08,51.17,9.52Z"/><path class="cls-1" d="M86.22,4.59c0,2.29-1.87,3.94-5.18,4.12,1.13.7,1.64,2.12,2.45,3.83s1.55,2.59,2.18,2.59a1.25,1.25,0,0,0,.34-.07l.32.45a2,2,0,0,1-1.76,1.19c-1.4,0-2-1.31-2.9-3.53S80.21,9.63,79.29,9l.07-.29H73.93V13c0,1.82.2,2.63,1.4,2.63h0v.67H70.58v-.67h0c1.19,0,1.4-.81,1.4-2.63V3.76c0-1.8-.2-2.63-1.35-2.63h-.09V.45h9.14C84.06.45,86.22,1.87,86.22,4.59ZM73.93,1.13V8h6.12c2.36,0,3.89-1.44,3.89-3.44s-1.53-3.47-3.89-3.47Z"/><path class="cls-1" d="M107.43,12.67h.67v3.67H94.69v-.67h.09c1.13,0,1.37-.81,1.37-2.63V3.76c0-1.8-.25-2.63-1.33-2.63h-.13V.45h4.84v.67h-.09c-1.12,0-1.35.81-1.35,2.63V15.67h5.24A3.82,3.82,0,0,0,107.43,12.67Z"/><path class="cls-1" d="M132.72,8.21c0,4.88-3.58,8.33-8.57,8.33s-8.6-3.29-8.6-8c0-4.88,3.6-8.33,8.6-8.33S132.72,3.56,132.72,8.21ZM124.14.92c-3.53,0-6.3,3.15-6.3,7.54s2.66,7.4,6.3,7.4,6.28-3.15,6.28-7.54S127.81.92,124.14.92Z"/><path class="cls-1" d="M149.83,15.67h.09v.67h-4.86v-.67h.09c1.13,0,1.37-.81,1.37-2.63V1.13H145A3.78,3.78,0,0,0,140.89,4h-.67V.45h14.54V4h-.67A3.78,3.78,0,0,0,150,1.13h-1.55V13C148.46,14.85,148.7,15.67,149.83,15.67Z"/><path class="cls-1" d="M172,15.67h.09v.67h-4.86v-.67h.09c1.13,0,1.37-.81,1.37-2.63V1.13h-1.55A3.78,3.78,0,0,0,163.11,4h-.67V.45H177V4h-.67a3.78,3.78,0,0,0-4.07-2.86h-1.55V13C170.68,14.85,170.92,15.67,172,15.67Z"/><path class="cls-1" d="M198.41,12.67h.7v3.67H184.73v-.67h.09c1.13,0,1.37-.81,1.37-2.63V3.76c0-1.82-.25-2.63-1.33-2.63h-.13V.45h14.38V4h-.7a3.78,3.78,0,0,0-4.07-2.86h-6.14V7.36h2.88c2.27,0,3.33-.56,3.35-1.94h.68V10h-.68c0-1.37-1.1-1.94-3.35-1.94h-2.88v7.63h6.14C196.47,15.67,197.67,14.83,198.41,12.67Z"/><path class="cls-1" d="M234.59,12.67h.67v3.67H221.85v-.67h.09c1.13,0,1.37-.81,1.37-2.63V3.76c0-1.8-.25-2.63-1.33-2.63h-.13V.45h4.84v.67h-.09c-1.12,0-1.35.81-1.35,2.63V15.67h5.24A3.82,3.82,0,0,0,234.59,12.67Z"/><path class="cls-1" d="M249.77,16.54a6.19,6.19,0,0,1-6.5-6.55V3.76c0-1.82-.25-2.63-1.37-2.63h-.09V.45h4.86v.67h-.09c-1.12,0-1.37.81-1.37,2.63v7.09c0,3.08,1.84,5,4.7,5,3.06,0,5.31-2.09,5.31-5.63V4.43c0-2.23-.67-3.31-2.12-3.31h-.18V.45h5.29v.67H258c-1.44,0-2.14,1.08-2.14,3.31v5.78C255.9,14.18,253.42,16.54,249.77,16.54Z"/><path class="cls-1" d="M278.79,4.34A6,6,0,0,0,273.17.92c-3.69,0-6.05,2.84-6.05,7.07,0,4.86,2.57,7.81,6.5,7.81,3.42,0,5.69-2.41,5.69-4.88,0-1.06-.7-1.46-.7-2,0-.27.23-.47.58-.47.72,0,1.4.88,1.4,2.25,0,3.11-2.95,5.83-7.61,5.83a7.86,7.86,0,0,1-8.15-8.19c0-4.73,3.13-8.1,7.94-8.1a20.6,20.6,0,0,1,3.53.47c.07,0,.25,0,.56,0a4.74,4.74,0,0,0,2.5-.74V4.3Z"/><path class="cls-1" d="M290,14.27c0,.74.63,1.33,1.73,1.4v.67h-5.31v-.67c1.64-.07,2.36-1.22,3.42-3.38l5.83-12,7.67,13.62a3.64,3.64,0,0,0,2.12,1.8v.67h-5.58v-.67H300a1.12,1.12,0,0,0,1.19-1.13,3.72,3.72,0,0,0-.52-1.53l-1.6-2.81h-7.45l-1,2.09A5.37,5.37,0,0,0,290,14.27Zm8.71-4.75-3.62-6.44L292,9.52Z"/><path class="cls-1" d="M312.95,12.18c.83,2.09,3.6,3.67,6.53,3.67s4.84-1.55,4.84-3.62c0-2.34-1.87-3-5.42-3.42-4.46-.5-6.8-1.42-6.8-4.3,0-2.43,2.09-4.25,5.4-4.25,2.41,0,4.05.77,5.4.77a5.7,5.7,0,0,0,2.36-.63v3.8h-.7c-1-1.91-3.58-3.26-6.48-3.26-2.59,0-4,1.1-4,2.86a2.24,2.24,0,0,0,1.06,1.89c1.33.81,2.79.79,4.5.95,4.43.41,6.68,2,6.68,4.79s-2.52,5.13-6.35,5.13c-2.48,0-4.25-.92-5.58-.92a4.26,4.26,0,0,0-2.14.54v-4Z"/></svg>